HIERARCHY
ROOT root
{
	OFFSET 0.000000 0.000000 0.000000
	CHANNELS 6 Xposition Yposition Zposition Zrotation Yrotation Xrotation
	JOINT lhip
	{
		OFFSET 0.058581 -0.082280 -0.017664
		CHANNELS 3 Zrotation Yrotation Xrotation
		JOINT lknee
		{
			OFFSET 0.043451 -0.386469 0.008037
			CHANNELS 3 Zrotation Yrotation Xrotation
			JOINT lankle
			{
				OFFSET -0.014790 -0.426874 -0.037428
				CHANNELS 3 Zrotation Yrotation Xrotation
				JOINT ltoe
				{
					OFFSET 0.041054 -0.060286 0.122042
					CHANNELS 3 Zrotation Yrotation Xrotation
					End Site
					{
						OFFSET 0.000000 0.000000 0.000000
					}
				}
			}
		}
	}
	JOINT rhip
	{
		OFFSET -0.060310 -0.090513 -0.013543
		CHANNELS 3 Zrotation Yrotation Xrotation
		JOINT rknee
		{
			OFFSET -0.043257 -0.383688 -0.004843
			CHANNELS 3 Zrotation Yrotation Xrotation
			JOINT rankle
			{
				OFFSET 0.019056 -0.420046 -0.034562
				CHANNELS 3 Zrotation Yrotation Xrotation
				JOINT rtoe
				{
					OFFSET -0.034840 -0.062106 0.130323
					CHANNELS 3 Zrotation Yrotation Xrotation
					End Site
					{
						OFFSET 0.000000 0.000000 0.000000
					}
				}
			}
		}
	}
	JOINT lowerback
	{
		OFFSET 0.004439 0.124404 -0.038385
		CHANNELS 3 Zrotation Yrotation Xrotation
		JOINT upperback
		{
			OFFSET 0.004488 0.137956 0.026820
			CHANNELS 3 Zrotation Yrotation Xrotation
			JOINT chest
			{
				OFFSET -0.002265 0.056032 0.002855
				CHANNELS 3 Zrotation Yrotation Xrotation
				JOINT lowerneck
				{
					OFFSET -0.013390 0.211636 -0.033468
					CHANNELS 3 Zrotation Yrotation Xrotation
					JOINT upperneck
					{
						OFFSET 0.010113 0.088937 0.050410
						CHANNELS 3 Zrotation Yrotation Xrotation
						End Site
						{
							OFFSET 0.000000 0.000000 0.000000
						}
					}
				}
				JOINT lclavicle
				{
					OFFSET 0.071702 0.114000 -0.018898
					CHANNELS 3 Zrotation Yrotation Xrotation
					JOINT lshoulder
					{
						OFFSET 0.122921 0.045205 -0.019046
						CHANNELS 3 Zrotation Yrotation Xrotation
						JOINT lelbow
						{
							OFFSET 0.255332 -0.015649 -0.022946
							CHANNELS 3 Zrotation Yrotation Xrotation
							JOINT lwrist
							{
								OFFSET 0.265709 0.012698 -0.007375
								CHANNELS 3 Zrotation Yrotation Xrotation
								End Site
								{
									OFFSET 0.000000 0.000000 0.000000
								}
							}
						}
					}
				}
				JOINT rclavicle
				{
					OFFSET -0.082954 0.112472 -0.023707
					CHANNELS 3 Zrotation Yrotation Xrotation
					JOINT rshoulder
					{
						OFFSET -0.113228 0.046853 -0.008472
						CHANNELS 3 Zrotation Yrotation Xrotation
						JOINT relbow
						{
							OFFSET -0.260127 -0.014369 -0.031269
							CHANNELS 3 Zrotation Yrotation Xrotation
							JOINT rwrist
							{
								OFFSET -0.269108 0.006794 -0.006027
								CHANNELS 3 Zrotation Yrotation Xrotation
								End Site
								{
									OFFSET 0.000000 0.000000 0.000000
								}
							}
						}
					}
				}
			}
		}
	}
}
MOTION
Frames: 10
Frame Time: 0.033333
-0.065176 -0.563257 0.885237 -177.300839 0.543939 101.603385 12.394854 6.348676 -32.242870 -7.831221 3.283548 53.958001 -0.570992 13.541976 -32.316264 0.000000 -0.000000 0.000000 -13.539877 -11.301338 -52.282468 1.380243 -13.245410 53.503255 -0.552951 -11.125199 -13.081702 0.000000 -0.000000 0.000000 -0.698506 -4.054922 34.869976 3.537732 -4.849698 0.058909 2.151907 -2.966012 -5.186941 -6.628497 2.243481 -13.887527 0.534682 -0.166624 -9.459931 -27.868292 -9.565004 3.252858 -35.056977 -14.937577 11.513009 17.368261 -59.753587 -15.929449 10.191287 -18.559016 -11.922597 26.425251 11.954074 2.340918 40.662606 0.179524 3.407678 -5.161051 31.079276 -14.863240 -8.121224 13.619035 -21.468575 
-0.051596 -0.546205 0.884692 -177.746901 -0.000012 101.211908 12.890402 6.386183 -31.311017 -8.112909 2.757643 55.591763 -1.186261 13.288160 -30.316716 0.000000 -0.000000 0.000000 -13.239265 -10.332603 -51.771064 1.260325 -12.699984 55.372770 -1.303960 -11.903348 -15.459199 0.000000 -0.000000 0.000000 -0.526955 -4.660345 34.748701 3.069391 -4.573771 0.200576 1.883962 -2.623019 -5.187454 -7.243785 2.083809 -14.146880 0.392161 0.210626 -9.384726 -28.437481 -9.898288 3.475938 -35.848746 -13.437235 11.274373 15.824030 -54.050431 -14.845349 8.536362 -17.292432 -11.516098 26.684659 12.732109 2.735747 40.661901 0.460927 3.387952 -5.004545 31.909265 -15.448393 -8.133659 13.828434 -21.898437 
-0.038194 -0.529545 0.885402 -178.461440 -0.881641 100.739165 13.338120 6.185551 -31.467452 -8.090252 3.282738 58.845433 -1.936106 12.483351 -26.290192 0.000000 -0.000000 0.000000 -13.149686 -9.258896 -51.120287 0.944500 -11.941508 56.972093 -2.137965 -12.539583 -17.255097 0.000000 -0.000000 0.000000 -0.401198 -4.642878 34.607398 2.418361 -4.440314 0.245734 1.608211 -2.444688 -5.290030 -7.947080 1.933192 -13.656296 0.602601 0.444065 -9.471770 -29.333967 -9.962048 3.865193 -36.283480 -11.978941 10.786512 14.433595 -48.717103 -14.705620 7.607625 -15.971844 -10.845361 27.029532 13.312431 3.457465 40.583406 1.162311 3.210382 -4.644206 32.526492 -16.084840 -8.435134 14.372759 -22.190646 
-0.026425 -0.513742 0.887359 -178.970294 -1.789906 100.312044 13.684640 5.777956 -32.803062 -7.686940 4.525142 62.935101 -2.162136 12.303834 -20.425612 0.000000 -0.000000 0.000000 -13.212515 -8.489728 -50.252509 0.793957 -11.416293 58.094003 -3.101622 -13.238782 -18.528786 0.000000 -0.000000 0.000000 0.104798 -4.701256 34.677019 1.654308 -4.325572 0.391876 1.140693 -2.296630 -5.617423 -8.301308 1.440650 -13.947857 0.346238 0.778180 -9.027050 -30.249167 -9.729736 3.733785 -36.906323 -10.307481 10.661009 13.795693 -44.482999 -14.666435 7.409377 -14.388465 -10.220889 27.284240 13.262088 3.396184 40.391660 1.993273 3.359457 -4.155764 33.830571 -16.566153 -8.584059 14.184653 -21.877903 
-0.016543 -0.498908 0.889453 -179.545779 -2.803161 100.005587 13.949975 5.524905 -34.479053 -6.662246 6.433104 66.321621 -2.719024 11.938407 -15.650740 0.000000 -0.000000 0.000000 -13.353897 -7.956869 -49.320573 0.245077 -11.010034 58.858152 -3.695198 -13.424661 -19.796990 0.000000 -0.000000 0.000000 0.537983 -4.563037 34.475924 0.835157 -4.397093 0.385298 0.713718 -2.110788 -5.615472 -8.734179 0.892583 -13.466022 0.243083 1.242762 -9.448147 -31.433771 -9.311281 3.966372 -37.105932 -8.292961 10.088660 13.878955 -42.182465 -15.571815 6.772808 -13.512740 -9.935127 27.306219 13.631163 3.597757 40.140313 2.837744 3.242913 -3.874073 35.345539 -17.179677 -8.692846 13.932089 -21.731524 
-0.008477 -0.485511 0.892516 -179.974160 -3.810773 99.661202 13.854153 5.400919 -36.052441 -5.903204 7.846512 68.217305 -3.291511 11.654737 -14.223615 0.000000 -0.000000 0.000000 -13.483824 -7.377147 -48.182971 -0.137392 -10.217523 59.227154 -3.790137 -13.902372 -20.936527 0.000000 -0.000000 0.000000 0.763439 -4.295889 34.534828 0.261024 -4.508028 0.994481 0.259340 -1.844178 -5.977662 -8.889792 0.288099 -13.548103 0.197349 1.376063 -9.700946 -32.336571 -8.719507 3.934484 -37.376400 -6.435180 10.259661 14.295257 -41.202805 -16.260585 7.453608 -13.479749 -10.413760 27.642545 13.898542 3.615624 39.557407 2.980937 4.342948 -4.315955 37.631394 -17.773843 -10.615265 14.544910 -23.383441 
-0.001923 -0.473618 0.895720 179.898870 -4.744851 99.528553 13.535571 5.138846 -37.829296 -7.165658 8.157549 67.023996 -3.577133 9.274330 -14.406551 0.000000 -0.000000 0.000000 -13.589174 -6.946424 -47.152456 -0.706167 -9.478629 59.262755 -3.649737 -14.324186 -21.990951 0.000000 -0.000000 0.000000 0.732269 -3.826999 34.997843 -0.085905 -4.586328 0.603296 0.150272 -1.657609 -5.819988 -8.620535 -0.332775 -13.895494 -0.038449 1.420868 -9.588864 -32.545089 -7.874737 3.692714 -38.506864 -4.665560 10.774274 14.945441 -41.730200 -17.747968 8.251351 -13.155411 -12.170290 27.658119 13.674315 3.569604 38.875225 3.578492 4.997592 -4.952043 41.010104 -17.432471 -12.383667 14.849273 -23.953887 
0.002846 -0.462179 0.899559 -179.891933 -5.590296 99.466566 12.937322 4.933423 -39.513928 -7.518777 8.231667 63.179215 -3.299352 8.813955 -14.754395 0.000000 -0.000000 0.000000 -13.723360 -6.847190 -46.003671 -1.208540 -8.861402 59.017416 -3.111823 -14.671483 -22.864182 0.000000 -0.000000 0.000000 0.759329 -3.157512 35.518270 -0.255452 -4.678949 -0.050968 0.220731 -1.682972 -5.491596 -8.642866 -1.293116 -13.938336 0.032030 1.446863 -9.815436 -32.797414 -7.185239 3.571989 -39.482140 -3.092899 11.317890 14.662548 -42.748510 -18.540903 10.522557 -13.562433 -14.589570 27.496084 13.531742 3.229397 38.347473 3.737417 5.804610 -5.308950 43.807454 -17.214820 -15.641753 15.524125 -25.423397 
0.006294 -0.451365 0.903540 -179.680142 -6.217829 99.398840 12.534055 4.853807 -40.894351 -6.647265 8.617507 57.856016 -2.687228 9.666482 -14.998789 0.000000 -0.000000 0.000000 -13.743167 -6.800249 -44.696098 -1.489758 -8.300213 58.383137 -2.414780 -14.972691 -23.752640 0.000000 -0.000000 0.000000 0.940745 -2.277838 36.074345 -0.454117 -4.744754 -0.574928 0.304759 -1.816175 -5.312280 -8.488577 -2.187085 -14.021113 0.162670 1.277756 -9.872270 -32.818916 -6.391141 3.420564 -40.504019 -1.635147 11.808748 14.846779 -44.678878 -18.468215 11.802921 -13.853960 -16.597362 27.114330 13.290610 2.902561 38.338457 4.212856 6.431872 -6.579633 46.216403 -17.353545 -17.601384 15.516230 -27.005455 
0.008299 -0.441611 0.906464 -179.264569 -6.594095 99.230677 12.260679 4.693917 -41.973205 -6.170777 8.003731 51.451060 -2.593569 9.486066 -14.637942 0.000000 -0.000000 0.000000 -13.704158 -6.909643 -43.368924 -1.964310 -8.040881 57.966657 -1.929998 -15.061888 -24.477246 0.000000 -0.000000 0.000000 1.221657 -1.460599 36.109394 -0.587093 -4.862563 0.211818 0.253316 -1.820493 -5.600816 -7.965694 -2.351739 -14.189088 0.012436 0.522249 -9.836554 -32.233316 -5.652801 3.169268 -41.768030 -0.499585 12.436346 15.543668 -47.417543 -18.518472 12.324556 -14.157551 -17.455302 26.670480 13.294285 2.790074 38.779864 4.634810 7.137910 -9.135489 48.297029 -19.454392 -19.557800 15.521085 -28.782048 
